<svg id="e9195868-1ef5-42df-8b94-1c3c45dfc3ff" data-name="Calque 1" xmlns="http://www.w3.org/2000/svg" viewBox="0 0 721.64 141.05"><defs><style>.a3eab872-78b5-4ba5-85c0-d6368ca269b8,.d8ee5e9b-a40a-4aef-9caf-4fdf6c23bcf9{stroke:#231f20;stroke-miterlimit:10;}.a3eab872-78b5-4ba5-85c0-d6368ca269b8{fill:none;stroke-width:3px;}</style></defs><title>we are coach long basket</title><polygon class="d8ee5e9b-a40a-4aef-9caf-4fdf6c23bcf9" points="70.38 138.8 92.09 85.55 89.84 79.06 66.45 120.56 62.47 88.01 74.5 68.74 73.11 62.54 60.03 68.12 56.66 40.57 77.86 27.63 73.94 18.75 48.33 23.04 62.61 135.8 70.38 138.8"/><path class="d8ee5e9b-a40a-4aef-9caf-4fdf6c23bcf9" d="M287.36,129.25c-19.82-.16-32.93-15.29-36-37.62-3.41-24.21,3.77-40.91,17.89-45.86a19.37,19.37,0,0,1,13.49.16q-.75-6.21-1.64-12.56c-2.59-1.15-7.9-2-15.19.83-17.75,7.45-27.64,30.44-24.75,58,2.88,28.56,22,46.33,45.8,47.52,10.06.27,17.22-2.45,20.42-5.15q-2.19-5.18-4.39-10.35C299.62,127.18,293.64,129.17,287.36,129.25Z" transform="translate(-18.08 -9)"/><path class="d8ee5e9b-a40a-4aef-9caf-4fdf6c23bcf9" d="M38.81,107.78,37.72,50.84l18,76.63,13.49-2.12L54.37,9.6l-4.75,1s9.26,96.59,9.24,96.41L40.23,40.37,33,43.16s-1.7,47.91-1.79,47.3L22.48,30.34l-3.86.72,6.88,74.06Z" transform="translate(-18.08 -9)"/><path class="d8ee5e9b-a40a-4aef-9caf-4fdf6c23bcf9" d="M136.94,97.72l15.89.87,4.93,28.84,6.18.34L148.21,36.08l-7-.38-14.79,90,6,.32Zm5.7-33.31c.83-5.48,1.54-11,2.18-16.32H145c.69,5.29,1.38,10.72,2.41,16.71l4.51,26.38-13.5-.74Z" transform="translate(-18.08 -9)"/><polygon class="d8ee5e9b-a40a-4aef-9caf-4fdf6c23bcf9" points="184.3 118.1 203.05 107.39 202.51 100.54 185.91 105.23 183.77 68.9 198.41 62.27 197.2 56.55 183.59 57.39 182.77 40.91 202.82 37.03 199.4 28.72 176.87 31.02 179.05 111.3 184.3 118.1"/><path class="d8ee5e9b-a40a-4aef-9caf-4fdf6c23bcf9" d="M173,132.75l-1.82-29,4.42.1c4.17.47,6,4.68,6.73,14.59.64,7.68,1.1,12.41,1.49,13.86l3.6-.16c-.42-2-.72-7.33-1.17-16.13-.37-7.54-1.68-13.32-4.34-15.7v-.4c3.9-3.07,7.44-11.41,8.42-26.3.68-10.17,0-20.48-2-28.17-2.77-10.81-7.46-16.76-15.18-18.32-5.13-1-10.52-.54-14.15,1.55l10.27,104.27Zm1.75-93.9c10.07.79,11,20.24,10.4,37.89-.43,13-3.92,20.31-9.14,20.08l-5.11-.22-2.71-56.72C169.19,39,171.46,38.6,174.72,38.85Z" transform="translate(-18.08 -9)"/><path class="d8ee5e9b-a40a-4aef-9caf-4fdf6c23bcf9" d="M359.35,31.56c-4.19,41-12.26,79-23.74,113.13q5.52-.56,11-1.26,4.94-16.6,8.84-34.26,13.65-3.14,27.08-7.37c3.42,10.86,10.1,30.12,13.58,41q5.6-1.45,11.16-3.09c-11.88-35-26.69-78.24-38-112.95Q364.37,29.26,359.35,31.56Zm20.77,61.13Q369,96.44,357.66,99.42q3.38-16.51,5.82-33.87c.93-7.26,1.54-14.53,2-21.68l.2-.09c1.53,6.12,3.06,12.4,5.16,19.14Q375.42,77.79,380.12,92.69Z" transform="translate(-18.08 -9)"/><path class="d8ee5e9b-a40a-4aef-9caf-4fdf6c23bcf9" d="M427.21,100.32c-14.83-.12-24.64-11.45-26.92-28.15-2.55-18.12,2.82-30.62,13.39-34.33a14.53,14.53,0,0,1,10.1.12q-.57-4.65-1.23-9.39c-1.94-.86-5.91-1.5-11.37.62C397.9,34.76,390.5,52,392.66,72.57c2.16,21.38,16.44,34.67,34.27,35.57,7.53.19,12.89-1.84,15.29-3.86-1.1-2.58-2.19-5.16-3.29-7.75C436.39,98.77,431.91,100.25,427.21,100.32Z" transform="translate(-18.08 -9)"/><path class="d8ee5e9b-a40a-4aef-9caf-4fdf6c23bcf9" d="M472.59,23.64q-3.45,2.5-6.94,4.89C468.21,46.8,468,50.26,470,68.23c-9.77,5.17-7.08,3.29-17.07,7.27q-1.31-25.74-3.42-52c-2.37,1.28-4.76,2.53-7.15,3.74q4,62,3.53,120.7c3.06-.62,6.12-1.3,9.18-2q-.27-27.93-1.49-56.61c10.28-3.73,7.89-1.63,18-6.59q3.09,30.06,5.13,59.53,4.59-1.65,9.17-3.43C482.22,96.41,479.46,67.74,472.59,23.64Z" transform="translate(-18.08 -9)"/><path class="d8ee5e9b-a40a-4aef-9caf-4fdf6c23bcf9" d="M346.06,68.77C340.63,41.6,327,28.65,312.77,37.29c-14,8.41-23.59,30.49-23.37,55.32.16,23.51,12.89,37.23,31.93,33C339.62,121.42,352.22,100.18,346.06,68.77Zm-24.45,49.58c-14.24,3.62-22.4-9.89-23.08-27-.69-17.67,4-36.69,15.62-43.08s21,8.81,24.08,26.66C341.73,95.25,335.93,114.6,321.61,118.35Z" transform="translate(-18.08 -9)"/><polygon class="a3eab872-78b5-4ba5-85c0-d6368ca269b8" points="510.78 16.72 507.85 17.79 504.47 19.95 508.3 37.2 509.02 37.67 509.86 40.09 512.59 52.85 508.94 61.7 505.61 65.09 516.17 68.3 528.54 79.87 532.79 85.32 534.32 88.06 548.55 100.05 553.29 100 557.14 95.45 559.54 93.61 571.47 93.23 589.5 100.59 590.23 99.92 594.17 101.87 610.71 107.93 624.22 109.09 634.41 108.45 639.8 108.17 653.33 111.17 667.04 108.99 680.64 109.16 692.53 109.2 704.26 107.15 704.97 105.6 711.94 101.47 712.92 96.81 710.41 95.25 711.37 93.45 696.93 85.39 685.1 80.38 673.35 76.99 669.61 79.98 662.45 84.05 655.66 82.84 643.19 76.19 641.23 68.91 638.09 70.35 624.98 71.31 610.95 65.99 609.72 62.73 605.45 58.91 605.95 57.22 603.59 56.62 600.36 56.77 599.93 55.86 589.88 55.69 571.83 55.11 565.67 44.79 565.98 43.79 561.13 50.06 556.39 53.12 542.67 58.38 534.76 55.04 532.6 43.45 534.29 35.92 532.32 34.59 520.53 37.54 516.18 42.91 513.72 41.14 513.49 39.12 513.02 27.78 510.78 16.72"/><polygon class="a3eab872-78b5-4ba5-85c0-d6368ca269b8" points="495.24 100.47 508.8 101.31 510.26 101.27 521.58 103.17 529.97 106.12 544.88 103.11 538.75 98.04 537.88 97.22 524.55 84.2 519.98 80.02 512.38 72.3 510.91 72.84 506.18 69.13 503.79 70.36 501.57 83.84 503.34 86.52 500.61 96.88 497.31 96.4 495.24 100.47"/><polygon class="a3eab872-78b5-4ba5-85c0-d6368ca269b8" points="514.17 130.54 527.9 132.18 541.67 132.19 547.13 131.77 562.48 133.57 577.88 133.54 593.29 131.57 612.91 131.61 620.91 133.24 633.59 132.04 646.23 132.76 658.81 131.55 671.23 129.61 685.76 127.14 686.8 127.3 698.59 121.91 701.15 121.73 709.19 114.45 712.09 110.9 700.52 113.67 699.3 113.68 687.87 116.36 676.19 115.77 673.93 116.48 670.85 115.54 659.26 115.56 647.69 115.26 639.6 115.66 623.9 115.04 612.1 114.46 602.79 111.14 587.62 106.28 584.62 103.19 582.11 101.46 563.59 96.14 563.5 97.56 563.93 96.93 562.58 97.28 563.23 97.68 562.09 98.5 561.7 99.25 560.05 100.13 556.35 101.45 557.46 103.62 552.83 103.86 552.55 104.08 537.97 110.77 523.35 108.17 521.68 107.12 504.81 104.39 503.88 104.14 496.14 104.71 495.65 110.97 493.43 111.61 495.42 120.58 503.56 127.63 514.17 130.54"/><polygon class="a3eab872-78b5-4ba5-85c0-d6368ca269b8" points="586.24 34.01 586.03 34.13 587.22 34.47 587.79 34.69 586.47 34.64 585.65 34.43 585.91 34.72 585.94 34.98 585.56 34.82 586.11 35.79 586.95 36.86 585.63 36.76 578.45 38.1 577.11 38.95 572.25 42.68 572.44 46.13 582.34 51.21 590.54 49.63 598.38 50.48 606.22 51.52 611.92 56.3 613.4 56.77 614.94 59.36 622.89 65.45 636.8 64.37 642.82 63.93 643.26 61.82 644.61 64.17 645.51 65.73 646.73 71.19 648.8 71.32 652.83 76.4 664.11 77.95 668.11 76.58 668.47 73.03 665.26 69.46 661.2 67.81 651.68 60.2 650.84 59.47 639.31 53.89 627.05 50.13 618.53 47.54 606.7 40.38 594.75 34.11 583.09 27.12 575.84 21.13 569.76 13.85 568.36 12.96 563.24 7.85 562.43 8.21 563.86 11.75 576.5 25.83 586.28 32.04 586.24 34.01"/><path d="M737.74,111.2l-1.82-10-2-1.72-2.51.28-8.61-7.94-1.42,0-16-6.36L689.5,79.3l-1,.09-1.69-5-4-2.32-12.28-6.29-10.6-6.17-10.79-6.09-8-1.69-18.46-8.08-.57.5L610.88,38.5,599,25.75l-1.49-3.61-2.35-1.46-13-7.61-6.54-1.25.72,6.6L585.15,33l7.11,3.68,4.53,4.73-10.86,4.63-12.15,9.59L562.56,63l-6-3.41,1.42-4.18-2.08-1-4.2-16.66-12,4.9-5,1.33L536,23.4l-2.66-3.25-11.24,2-5.9,13,3.62,10.52,3.42,3.65,3.39,7.16-3.12,10.06-1.34.38-6.08,8.54-1.78,16.25.82,3.93-.51,5.35-1.47,2.65-5.23,1.67.11,15.11,1.54,12.23,11.64,8.82L536,145.47l15.26,1.44,2.44.07,13.17.53,13.22-1.46,13.17.22,13.15.93,13.15,1.34,2.16,0,13.46-2.15,18.37.67,15.69-.16,15.85.44,17.06-3.3,16.37-6.1,4-4,1.68-2.17,4.89-4.68,9-13.51ZM532.41,49.28l1.76,2.3,5.36-3.67L551,41.8l.43,3.47,0,7.38,2,10.91,7.36,3.76,13.3-5.68,5.65-2.1,4.77-6.19,1.25.38,5.12,8.65L608,65.54l10.09-1.66.47.44,3.59,0,2.19,1.59-.24,1.42,2.76,5.18,2.69,2,13.52,5,13.29.71,3.86-2.93,1.24,7.82,12.58,5.07,6.45,1.91,7.81-2.11,2.94-4.85,12,4.06,11.34,6,13.21,9.34L729.5,103l2.12,2.45.31,6.19-8.31,4.89L722,114.93l-11.45,2.55-11.74,2.27L685.12,118l-13.62,0-13.7.85h-5.37l-10.14.12-13.55-1.36-16.27-7.2-3.79-2.27-.46.13-18.51-6.63-11.2,2.07h-3.9l-3.38,5.06-4.55.18L552.87,96.58l-1.52-2.76-4.64-5L534.32,77.22l-9.56-5.34.84-2.15L530,61.62l-1.81-12.68,0-2.79-.37-.63-5.94-16.78L525,25.06l5.27.37-1.47,11.46.42,11.3ZM517,104.06l5.16-8.6-.89-2.87-.5-14.38,3.13,1.44L528.86,82l1.48-.56,7.9,7.39,4.76,4,12,14.56,1.74-.21,6.91,5.45-15.43,1.81-8.29-3.21-11.54-1.08-1.35-.61-13.49.86,2-4.85Zm-5.44,16.58,2.27-.66,1.31-5,6.8-1.91.78,2.3,16.59,2.46,2.14-.9,14.37,1.55L570.61,113l.86,2.25,3.37-3.44-.29-1.23,3.3-1.82,2.22-.16-.33-1.61,1.39-.6-.16-.09,1.14-1.3,0,1.4.38,1.29,17.14,3.93,3.58-.44,2.43,4.28,15.54,4,9,3.63,11.88-1.15,15.66,1.92,8.06.19,11.56.75,11.59-.52,3.08.52,2.27,1.11,11.55-2.54,11.47-1,1-1,11.49-3.49-3.72,4.54-7.92,6.83-.92,2.47-12.72,3.44-.81.59-14.06,4.84-12.6,1.88-12.69,1.08-12.71-.79L639,141.36l-8-.46-19.62.12-15.39.86-15.42.8-15.3-3-5.52,1.68L546,141.11l-13.55-2.63L522.25,135l-7.89-5.94Zm69-99.09.7-3.9,0-.3,6.61,3.19-.46,2.71,7,6.33,7.44,5.75L612.6,43.5l12.29,5.63,11.77,7.29,8.75,2,12.17,4.06,11.1,6.4.35,1.62,11.07,5.26L682.71,79l3.94,3-.34,3.7-4.2.56-10.54-2.69-5.1-3-2.16-.09,1.22-5.75-3.23-1-1-2-.4,1.46-6.06.27L640.8,75.1l-7.87-6.66-2.42-1.81L630,65.26l-5.15-6.14-8.45,1L608.75,60l-8.37,1.14-11.29-5.32,2.24-3.47,4.5-2.8.93-2L604,46.42l.81-.83-.9-1.15v-.39l-.22-.31.87.26,1.21.18.37-.06-.22-.42-1-.3-1-.29,2.49,0L604,41.45l-9.24-6.82Z" transform="translate(-18.08 -9)"/><path class="a3eab872-78b5-4ba5-85c0-d6368ca269b8" d="M737.74,111.2l-1.82-10-2-1.72-2.51.28-8.61-7.94-1.42,0-16-6.36L689.5,79.3l-1,.09-1.69-5-4-2.32-12.28-6.29-10.6-6.17-10.79-6.09-8-1.69-18.46-8.08-.57.5L610.88,38.5,599,25.75l-1.49-3.61-2.35-1.46-13-7.61-6.54-1.25.72,6.6L585.15,33l7.11,3.68,4.53,4.73-10.86,4.63-12.15,9.59L562.56,63l-6-3.41,1.42-4.18-2.08-1-4.2-16.66-12,4.9-5,1.33L536,23.4l-2.66-3.25-11.24,2-5.9,13,3.62,10.52,3.42,3.65,3.39,7.16-3.12,10.06-1.34.38-6.08,8.54-1.78,16.25.82,3.93-.51,5.35-1.47,2.65-5.23,1.67.11,15.11,1.54,12.23,11.64,8.82L536,145.47l15.26,1.44,2.44.07,13.17.53,13.22-1.46,13.17.22,13.15.93,13.15,1.34,2.16,0,13.46-2.15,18.37.67,15.69-.16,15.85.44,17.06-3.3,16.37-6.1,4-4,1.68-2.17,4.89-4.68,9-13.51ZM532.41,49.28l1.76,2.3,5.36-3.67L551,41.8l.43,3.47,0,7.38,2,10.91,7.36,3.76,13.3-5.68,5.65-2.1,4.77-6.19,1.25.38,5.12,8.65L608,65.54l10.09-1.66.47.44,3.59,0,2.19,1.59-.24,1.42,2.76,5.18,2.69,2,13.52,5,13.29.71,3.86-2.93,1.24,7.82,12.58,5.07,6.45,1.91,7.81-2.11,2.94-4.85,12,4.06,11.34,6,13.21,9.34L729.5,103l2.12,2.45.31,6.19-8.31,4.89L722,114.93l-11.45,2.55-11.74,2.27L685.12,118l-13.62,0-13.7.85h-5.37l-10.14.12-13.55-1.36-16.27-7.2-3.79-2.27-.46.13-18.51-6.63-11.2,2.07h-3.9l-3.38,5.06-4.55.18L552.87,96.58l-1.52-2.76-4.64-5L534.32,77.22l-9.56-5.34.84-2.15L530,61.62l-1.81-12.68,0-2.79-.37-.63-5.94-16.78L525,25.06l5.27.37-1.47,11.46.42,11.3ZM517,104.06l5.16-8.6-.89-2.87-.5-14.38,3.13,1.44L528.86,82l1.48-.56,7.9,7.39,4.76,4,12,14.56,1.74-.21,6.91,5.45-15.43,1.81-8.29-3.21-11.54-1.08-1.35-.61-13.49.86,2-4.85Zm-5.44,16.58,2.27-.66,1.31-5,6.8-1.91.78,2.3,16.59,2.46,2.14-.9,14.37,1.55L570.61,113l.86,2.25,3.37-3.44-.29-1.23,3.3-1.82,2.22-.16-.33-1.61,1.39-.6-.16-.09,1.14-1.3,0,1.4.38,1.29,17.14,3.93,3.58-.44,2.43,4.28,15.54,4,9,3.63,11.88-1.15,15.66,1.92,8.06.19,11.56.75,11.59-.52,3.08.52,2.27,1.11,11.55-2.54,11.47-1,1-1,11.49-3.49-3.72,4.54-7.92,6.83-.92,2.47-12.72,3.44-.81.59-14.06,4.84-12.6,1.88-12.69,1.08-12.71-.79L639,141.36l-8-.46-19.62.12-15.39.86-15.42.8-15.3-3-5.52,1.68L546,141.11l-13.55-2.63L522.25,135l-7.89-5.94Zm69-99.09.7-3.9,0-.3,6.61,3.19-.46,2.71,7,6.33,7.44,5.75L612.6,43.5l12.29,5.63,11.77,7.29,8.75,2,12.17,4.06,11.1,6.4.35,1.62,11.07,5.26L682.71,79l3.94,3-.34,3.7-4.2.56-10.54-2.69-5.1-3-2.16-.09,1.22-5.75-3.23-1-1-2-.4,1.46-6.06.27L640.8,75.1l-7.87-6.66-2.42-1.81L630,65.26l-5.15-6.14-8.45,1L608.75,60l-8.37,1.14-11.29-5.32,2.24-3.47,4.5-2.8.93-2L604,46.42l.81-.83-.9-1.15v-.39l-.22-.31.87.26,1.21.18.37-.06-.22-.42-1-.3-1-.29,2.49,0L604,41.45l-9.24-6.82Z" transform="translate(-18.08 -9)"/></svg>