<svg id="8f105e36-8cec-44a2-a51a-cb1bffd9f464" data-name="Calque 1" xmlns="http://www.w3.org/2000/svg" viewBox="0 0 267.81 320.96"><defs><style>.\31 360eadc-522c-4385-ab89-f26f212ce77a{stroke:#231f20;stroke-miterlimit:10;}</style></defs><title>we are coach</title><polygon class="1360eadc-522c-4385-ab89-f26f212ce77a" points="103.84 150.98 127.47 93.04 125.02 85.98 99.57 131.14 95.24 95.72 108.33 74.75 106.82 68 92.59 74.08 88.92 44.09 111.98 30.01 107.71 20.35 79.85 25.02 95.39 147.72 103.84 150.98"/><path class="1360eadc-522c-4385-ab89-f26f212ce77a" d="M69.14,313.84c-21.56-.21-35.84-19.9-39.14-48.95-3.71-31.5,4.1-53.23,19.47-59.67a17.86,17.86,0,0,1,14.67.21q-.81-8.09-1.78-16.33c-2.81-1.5-8.59-2.62-16.53,1.07-19.32,9.69-30.08,39.6-26.93,75.43,3.13,37.16,23.91,60.29,49.84,61.84,11,.34,18.74-3.19,22.22-6.71q-2.38-6.74-4.78-13.47C82.48,311.15,76,313.73,69.14,313.84Z" transform="translate(-17.86 -17.85)"/><path class="1360eadc-522c-4385-ab89-f26f212ce77a" d="M67.67,125.29l-1.19-62L86,146.72l14.68-2.31L84.6,18.45l-5.17,1.07s10.08,105.11,10,104.91L69.21,51.93l-7.92,3s-1.84,52.13-1.94,51.46L49.9,41l-4.2.79,7.49,80.59Z" transform="translate(-17.86 -17.85)"/><path class="1360eadc-522c-4385-ab89-f26f212ce77a" d="M174.45,114.34l17.3,1,5.35,31.38,6.73.37L186.72,47.27l-7.6-.42L163,144.8l6.51.36Zm6.2-36.24c.91-6,1.68-11.93,2.38-17.76h.14c.75,5.76,1.5,11.66,2.62,18.18l4.91,28.71-14.69-.8Z" transform="translate(-17.86 -17.85)"/><polygon class="1360eadc-522c-4385-ab89-f26f212ce77a" points="227.81 128.47 248.22 116.81 247.63 109.36 229.56 114.45 227.23 74.93 243.16 67.7 241.85 61.49 227.04 62.4 226.14 44.47 247.97 40.24 244.24 31.2 219.73 33.71 222.09 121.06 227.81 128.47"/><path class="1360eadc-522c-4385-ab89-f26f212ce77a" d="M213.66,152.46l-2-31.59,4.81.11c4.53.51,6.49,5.1,7.33,15.87.68,8.37,1.19,13.51,1.62,15.09l3.91-.17c-.45-2.16-.79-8-1.27-17.55-.4-8.21-1.83-14.5-4.72-17.09v-.43c4.24-3.35,8.09-12.42,9.16-28.63.74-11.07,0-22.28-2.17-30.65-3-11.76-8.12-18.24-16.52-19.93-5.59-1.13-11.46-.59-15.41,1.68l11.18,113.47Zm1.91-102.18c11,.86,11.94,22,11.31,41.23-.47,14.1-4.27,22.11-9.94,21.86l-5.57-.25-2.94-61.71C209.55,50.46,212,50,215.57,50.28Z" transform="translate(-17.86 -17.85)"/><path class="1360eadc-522c-4385-ab89-f26f212ce77a" d="M147.48,186.74c-4.56,53.32-13.34,102.72-25.84,147.18q6-.71,12-1.63,5.37-21.62,9.62-44.57,14.83-4.1,29.47-9.6c3.72,14.13,11,39.19,14.77,53.37q6.09-1.9,12.14-4c-12.93-45.54-29-101.8-41.32-147Q152.93,183.74,147.48,186.74Zm22.6,79.54q-12.14,4.86-24.45,8.75Q149.31,253.54,152,231c1-9.44,1.68-18.91,2.14-28.21l.21-.11c1.67,8,3.34,16.12,5.62,24.89Q165,246.88,170.08,266.28Z" transform="translate(-17.86 -17.85)"/><path class="1360eadc-522c-4385-ab89-f26f212ce77a" d="M221.32,276.19C205.19,276,194.51,261.3,192,239.57c-2.77-23.58,3.07-39.84,14.57-44.66a13.38,13.38,0,0,1,11,.15q-.6-6-1.33-12.22c-2.11-1.12-6.43-2-12.37.81-14.46,7.25-22.51,29.63-20.16,56.45,2.35,27.8,17.9,45.11,37.3,46.27,8.2.26,14-2.39,16.63-5l-3.57-10.08C231.31,274.18,226.44,276.11,221.32,276.19Z" transform="translate(-17.86 -17.85)"/><path class="1360eadc-522c-4385-ab89-f26f212ce77a" d="M270.7,176.43q-3.75,3.27-7.54,6.37c2.77,23.76,2.57,28.27,4.74,51.65-10.64,6.72-7.71,4.27-18.58,9.45q-1.42-33.48-3.72-67.65-3.87,2.52-7.78,4.88,4.35,80.63,3.84,157,5-1.21,10-2.63-.27-36.35-1.61-73.65c11.18-4.86,8.58-2.13,19.55-8.58q3.36,39.12,5.59,77.45,5-2.13,10-4.46C281.19,271.11,278.18,233.8,270.7,176.43Z" transform="translate(-17.86 -17.85)"/><path class="1360eadc-522c-4385-ab89-f26f212ce77a" d="M133,235.15c-5.9-35.35-20.77-52.21-36.22-41-15.24,10.95-25.67,39.67-25.43,72,.17,30.6,14,48.45,34.75,42.95C126,303.65,139.72,276,133,235.15Zm-26.6,64.51c-15.5,4.7-24.37-12.87-25.11-35.14-.75-23,4.33-47.73,17-56,12.69-8.48,22.89,11.45,26.2,34.68C128.31,269.6,122,294.78,106.41,299.66Z" transform="translate(-17.86 -17.85)"/></svg>