<svg id="90085240-3ab2-466e-aad7-d51975fc815b" data-name="Calque 1" xmlns="http://www.w3.org/2000/svg" viewBox="0 0 468.3 139.57"><defs><style>.\31 81ae205-fcd2-491c-a39e-e8c0da0ad1bb{stroke:#231f20;stroke-miterlimit:10;}</style></defs><title>we are coach long</title><polygon class="181ae205-fcd2-491c-a39e-e8c0da0ad1bb" points="70.38 138.8 92.09 85.55 89.84 79.06 66.45 120.56 62.47 88.01 74.5 68.74 73.11 62.54 60.03 68.12 56.66 40.57 77.86 27.63 73.94 18.75 48.33 23.04 62.61 135.8 70.38 138.8"/><path class="181ae205-fcd2-491c-a39e-e8c0da0ad1bb" d="M287.36,129.25c-19.82-.16-32.93-15.29-36-37.62-3.41-24.21,3.77-40.91,17.89-45.86a19.37,19.37,0,0,1,13.49.16q-.75-6.21-1.64-12.56c-2.59-1.15-7.9-2-15.19.83-17.75,7.45-27.64,30.44-24.75,58,2.88,28.56,22,46.33,45.8,47.52,10.06.27,17.22-2.45,20.42-5.15q-2.19-5.18-4.39-10.35C299.62,127.18,293.64,129.17,287.36,129.25Z" transform="translate(-18.08 -9)"/><path class="181ae205-fcd2-491c-a39e-e8c0da0ad1bb" d="M38.81,107.78,37.72,50.84l18,76.63,13.49-2.12L54.37,9.6l-4.75,1s9.26,96.59,9.24,96.41L40.23,40.37,33,43.16s-1.7,47.91-1.79,47.3L22.48,30.34l-3.86.72,6.88,74.06Z" transform="translate(-18.08 -9)"/><path class="181ae205-fcd2-491c-a39e-e8c0da0ad1bb" d="M136.94,97.72l15.89.87,4.93,28.84,6.18.34L148.21,36.08l-7-.38-14.79,90,6,.32Zm5.7-33.31c.83-5.48,1.54-11,2.18-16.32H145c.69,5.29,1.38,10.72,2.41,16.71l4.51,26.38-13.5-.74Z" transform="translate(-18.08 -9)"/><polygon class="181ae205-fcd2-491c-a39e-e8c0da0ad1bb" points="184.3 118.1 203.05 107.39 202.51 100.54 185.91 105.23 183.77 68.9 198.41 62.27 197.2 56.55 183.59 57.39 182.77 40.91 202.82 37.03 199.4 28.72 176.87 31.02 179.05 111.3 184.3 118.1"/><path class="181ae205-fcd2-491c-a39e-e8c0da0ad1bb" d="M173,132.75l-1.82-29,4.42.1c4.17.47,6,4.68,6.73,14.59.64,7.68,1.1,12.41,1.49,13.86l3.6-.16c-.42-2-.72-7.33-1.17-16.13-.37-7.54-1.68-13.32-4.34-15.7v-.4c3.9-3.07,7.44-11.41,8.42-26.3.68-10.17,0-20.48-2-28.17-2.77-10.81-7.46-16.76-15.18-18.32-5.13-1-10.52-.54-14.15,1.55l10.27,104.27Zm1.75-93.9c10.07.79,11,20.24,10.4,37.89-.43,13-3.92,20.31-9.14,20.08l-5.11-.22-2.71-56.72C169.19,39,171.46,38.6,174.72,38.85Z" transform="translate(-18.08 -9)"/><path class="181ae205-fcd2-491c-a39e-e8c0da0ad1bb" d="M359.35,31.56c-4.19,41-12.26,79-23.74,113.13q5.52-.56,11-1.26,4.94-16.6,8.84-34.26,13.65-3.14,27.08-7.37c3.42,10.86,10.1,30.12,13.58,41q5.6-1.45,11.16-3.09c-11.88-35-26.69-78.24-38-112.95Q364.37,29.26,359.35,31.56Zm20.77,61.13Q369,96.44,357.66,99.42q3.38-16.51,5.82-33.87c.93-7.26,1.54-14.53,2-21.68l.2-.09c1.53,6.12,3.06,12.4,5.16,19.14Q375.42,77.79,380.12,92.69Z" transform="translate(-18.08 -9)"/><path class="181ae205-fcd2-491c-a39e-e8c0da0ad1bb" d="M427.21,100.32c-14.83-.12-24.64-11.45-26.92-28.15-2.55-18.12,2.82-30.62,13.39-34.33a14.53,14.53,0,0,1,10.1.12q-.57-4.65-1.23-9.39c-1.94-.86-5.91-1.5-11.37.62C397.9,34.76,390.5,52,392.66,72.57c2.16,21.38,16.44,34.67,34.27,35.57,7.53.19,12.89-1.84,15.29-3.86-1.1-2.58-2.19-5.16-3.29-7.75C436.39,98.77,431.91,100.25,427.21,100.32Z" transform="translate(-18.08 -9)"/><path class="181ae205-fcd2-491c-a39e-e8c0da0ad1bb" d="M472.59,23.64q-3.45,2.5-6.94,4.89C468.21,46.8,468,50.26,470,68.23c-9.77,5.17-7.08,3.29-17.07,7.27q-1.31-25.74-3.42-52c-2.37,1.28-4.76,2.53-7.15,3.74q4,62,3.53,120.7c3.06-.62,6.12-1.3,9.18-2q-.27-27.93-1.49-56.61c10.28-3.73,7.89-1.63,18-6.59q3.09,30.06,5.13,59.53,4.59-1.65,9.17-3.43C482.22,96.41,479.46,67.74,472.59,23.64Z" transform="translate(-18.08 -9)"/><path class="181ae205-fcd2-491c-a39e-e8c0da0ad1bb" d="M346.06,68.77C340.63,41.6,327,28.65,312.77,37.29c-14,8.41-23.59,30.49-23.37,55.32.16,23.51,12.89,37.23,31.93,33C339.62,121.42,352.22,100.18,346.06,68.77Zm-24.45,49.58c-14.24,3.62-22.4-9.89-23.08-27-.69-17.67,4-36.69,15.62-43.08s21,8.81,24.08,26.66C341.73,95.25,335.93,114.6,321.61,118.35Z" transform="translate(-18.08 -9)"/></svg>