<svg id="b5b144c7-7e74-445d-a3ca-55f35fa37b7d" data-name="Calque 1" xmlns="http://www.w3.org/2000/svg" viewBox="0 0 233.31 140.07"><defs><style>.a0a06f1c-7115-4658-92e7-089327d71e07{fill:none;stroke:#231f20;stroke-miterlimit:10;stroke-width:3px;}</style></defs><title>we are coach basket true</title><polygon class="a0a06f1c-7115-4658-92e7-089327d71e07" points="22.45 15.74 19.51 16.82 16.14 18.98 19.97 36.23 20.69 36.69 21.53 39.12 24.26 51.87 20.61 60.73 17.28 64.12 27.84 67.33 40.21 78.9 44.46 84.34 45.98 87.09 60.22 99.08 64.96 99.03 68.81 94.47 71.2 92.64 83.14 92.25 101.17 99.62 101.9 98.94 105.83 100.9 122.37 106.95 135.89 108.12 146.08 107.48 151.47 107.2 165 110.2 178.71 108.01 192.31 108.19 204.19 108.23 215.93 106.18 216.63 104.62 223.6 100.5 224.58 95.83 222.07 94.27 223.03 92.48 208.6 84.41 196.77 79.41 185.02 76.02 181.28 79.01 174.12 83.08 167.33 81.87 154.85 75.22 152.9 67.94 149.76 69.38 136.65 70.34 122.61 65.01 121.39 61.76 117.11 57.93 117.61 56.24 115.26 55.65 112.03 55.8 111.6 54.89 101.55 54.71 83.5 54.14 77.33 43.81 77.65 42.82 72.8 49.08 68.06 52.14 54.34 57.41 46.43 54.06 44.26 42.47 45.96 34.95 43.98 33.62 32.2 36.56 27.85 41.94 25.39 40.16 25.16 38.15 24.69 26.81 22.45 15.74"/><polygon class="a0a06f1c-7115-4658-92e7-089327d71e07" points="6.91 99.5 20.47 100.34 21.92 100.3 33.25 102.19 41.64 105.14 56.55 102.14 50.42 97.06 49.55 96.24 36.22 83.23 31.65 79.05 24.05 71.33 22.58 71.87 17.85 68.15 15.46 69.38 13.24 82.87 15.01 85.55 12.28 95.9 8.98 95.42 6.91 99.5"/><polygon class="a0a06f1c-7115-4658-92e7-089327d71e07" points="25.83 129.57 39.57 131.21 53.33 131.21 58.8 130.8 74.15 132.59 89.55 132.57 104.96 130.59 124.57 130.64 132.57 132.27 145.25 131.06 157.9 131.78 170.47 130.58 182.9 128.63 197.43 126.17 198.47 126.32 210.25 120.93 212.82 120.75 220.86 113.48 223.76 109.92 212.19 112.69 210.96 112.71 199.54 115.38 187.86 114.79 185.6 115.5 182.52 114.57 170.93 114.58 159.35 114.28 151.26 114.69 135.57 114.07 123.76 113.49 114.46 110.17 99.29 105.3 96.29 102.22 93.77 100.49 75.26 95.16 75.17 96.58 75.6 95.95 74.25 96.3 74.89 96.7 73.75 97.52 73.36 98.27 71.72 99.15 68.02 100.48 69.13 102.64 64.49 102.88 64.22 103.1 49.64 109.8 35.01 107.2 33.35 106.15 16.48 103.41 15.55 103.17 7.81 103.74 7.31 110 5.09 110.64 7.08 119.61 15.23 126.65 25.83 129.57"/><polygon class="a0a06f1c-7115-4658-92e7-089327d71e07" points="97.91 33.03 97.69 33.15 98.89 33.5 99.46 33.72 98.14 33.67 97.31 33.46 97.58 33.74 97.61 34 97.23 33.85 97.78 34.81 98.61 35.88 97.29 35.79 90.12 37.12 88.77 37.97 83.91 41.71 84.11 45.15 94.01 50.24 102.2 48.66 110.04 49.51 117.89 50.55 123.58 55.33 125.07 55.79 126.61 58.38 134.55 64.48 148.46 63.4 154.49 62.95 154.93 60.84 156.28 63.2 157.18 64.76 158.4 70.22 160.47 70.34 164.5 75.42 175.77 76.97 179.77 75.61 180.13 72.06 176.93 68.49 172.87 66.83 163.35 59.23 162.51 58.49 150.98 52.92 138.72 49.15 130.2 46.57 118.36 39.4 106.41 33.14 94.75 26.15 87.5 20.15 81.42 12.88 80.03 11.98 74.91 6.88 74.1 7.24 75.53 10.78 88.16 24.86 97.95 31.07 97.91 33.03"/><path d="M248.58,111.2l-1.81-10-2-1.72-2.52.28-8.61-7.94-1.41,0-16-6.36L200.34,79.3l-1,.09-1.7-5-4-2.32-12.28-6.29-10.61-6.17L160,53.49l-8-1.69-18.46-8.08-.57.5L121.72,38.5,109.88,25.75l-1.48-3.61L106,20.68l-13-7.61-6.55-1.25.73,6.6L96,33l7.1,3.68,4.53,4.73L96.77,46.05,84.62,55.64,73.4,63l-6.05-3.41,1.42-4.18-2.07-1L62.49,37.79l-12,4.9-5,1.33,1.3-20.62-2.66-3.25L33,22.17,27,35.2l3.63,10.52,3.41,3.65,3.39,7.16L34.35,66.59,33,67l-6.07,8.54L25.15,91.76,26,95.69,25.46,101,24,103.69l-5.23,1.67.1,15.11,1.54,12.23,11.65,8.82,14.82,3.95,15.26,1.44,2.44.07,13.18.53L91,146.05l13.16.22,13.15.93,13.15,1.34,2.16,0,13.46-2.15,18.37.67,15.69-.16,15.86.44L213,144l16.36-6.1,4-4,1.67-2.17L240,127l9-13.51ZM43.25,49.28,45,51.58l5.36-3.67L61.82,41.8l.43,3.47,0,7.38,2,10.91,7.36,3.76,13.3-5.68,5.65-2.1,4.77-6.19,1.25.38,5.12,8.65,17.19,3.16L129,63.88l.47.44,3.58,0,2.2,1.59L135,67.31l2.76,5.18,2.7,2,13.51,5,13.29.71,3.86-2.93,1.24,7.82,12.58,5.07,6.46,1.91,7.8-2.11,2.94-4.85,12,4.06,11.33,6,13.22,9.34,1.66-1.55,2.12,2.45.31,6.19-8.31,4.89-1.65-1.55-11.44,2.55-11.75,2.27L196,118l-13.62,0-13.69.85h-5.38l-10.14.12-13.55-1.36-16.26-7.2-3.8-2.27-.46.13-18.5-6.63-11.2,2.07h-3.9l-3.39,5.06-4.55.18L63.72,96.58l-1.53-2.76-4.64-5L45.16,77.22,35.6,71.88l.84-2.15,4.44-8.11-1.8-12.68,0-2.79-.38-.63L32.72,28.74l3.14-3.68,5.27.37L39.67,36.89l.41,11.3ZM27.87,104.06,33,95.46l-.9-2.87-.49-14.38,3.13,1.44L39.7,82l1.49-.56,7.9,7.39,4.75,4,12,14.56,1.73-.21,6.91,5.45L59,114.44l-8.28-3.21L39.2,110.15l-1.35-.61-13.49.86,2-4.85Zm-5.44,16.58L24.7,120,26,115l6.79-1.91.78,2.3,16.59,2.46,2.15-.9,14.37,1.55L81.45,113l.86,2.25,3.38-3.44-.3-1.23,3.3-1.82,2.22-.16L90.58,107l1.4-.6-.17-.09L93,105l0,1.4.38,1.29,17.15,3.93,3.57-.44,2.44,4.28,15.53,4,9,3.63,11.87-1.15,15.66,1.92,8.07.19,11.55.75,11.59-.52,3.08.52,2.28,1.11,11.55-2.54,11.46-1,1-1,11.49-3.49-3.72,4.54L229,129.21l-.92,2.47-12.71,3.44-.81.59-14.07,4.84-12.59,1.88-12.7,1.08-12.7-.79-12.65-1.36-8-.46-19.62.12-15.39.86-15.42.8-15.3-3-5.51,1.68-13.77-.27-13.55-2.63L33.09,135l-7.89-5.94Zm69-99.09.7-3.9,0-.3,6.61,3.19-.46,2.71,7,6.33,7.43,5.75,10.66,8.17,12.29,5.63,11.77,7.29,8.76,2,12.17,4.06,11.1,6.4.35,1.62L191,75.77,193.56,79l3.93,3-.34,3.7-4.2.56-10.54-2.69-5.09-3-2.16-.09,1.22-5.75-3.24-1-.95-2-.4,1.46-6.06.27L151.64,75.1l-7.87-6.66-2.42-1.81-.46-1.37-5.16-6.14-8.44,1L119.6,60l-8.38,1.14L99.93,55.83l2.25-3.47,4.49-2.8.93-2,7.24-1.17.82-.83-.91-1.15v-.39l-.23-.31.88.26,1.21.18.37-.06-.23-.42-1-.3-1-.29,2.49,0-2.44-1.62-9.25-6.82Z" transform="translate(-17.26 -9.97)"/><path class="a0a06f1c-7115-4658-92e7-089327d71e07" d="M248.58,111.2l-1.81-10-2-1.72-2.52.28-8.61-7.94-1.41,0-16-6.36L200.34,79.3l-1,.09-1.7-5-4-2.32-12.28-6.29-10.61-6.17L160,53.49l-8-1.69-18.46-8.08-.57.5L121.72,38.5,109.88,25.75l-1.48-3.61L106,20.68l-13-7.61-6.55-1.25.73,6.6L96,33l7.1,3.68,4.53,4.73L96.77,46.05,84.62,55.64,73.4,63l-6.05-3.41,1.42-4.18-2.07-1L62.49,37.79l-12,4.9-5,1.33,1.3-20.62-2.66-3.25L33,22.17,27,35.2l3.63,10.52,3.41,3.65,3.39,7.16L34.35,66.59,33,67l-6.07,8.54L25.15,91.76,26,95.69,25.46,101,24,103.69l-5.23,1.67.1,15.11,1.54,12.23,11.65,8.82,14.82,3.95,15.26,1.44,2.44.07,13.18.53L91,146.05l13.16.22,13.15.93,13.15,1.34,2.16,0,13.46-2.15,18.37.67,15.69-.16,15.86.44L213,144l16.36-6.1,4-4,1.67-2.17L240,127l9-13.51ZM43.25,49.28,45,51.58l5.36-3.67L61.82,41.8l.43,3.47,0,7.38,2,10.91,7.36,3.76,13.3-5.68,5.65-2.1,4.77-6.19,1.25.38,5.12,8.65,17.19,3.16L129,63.88l.47.44,3.58,0,2.2,1.59L135,67.31l2.76,5.18,2.7,2,13.51,5,13.29.71,3.86-2.93,1.24,7.82,12.58,5.07,6.46,1.91,7.8-2.11,2.94-4.85,12,4.06,11.33,6,13.22,9.34,1.66-1.55,2.12,2.45.31,6.19-8.31,4.89-1.65-1.55-11.44,2.55-11.75,2.27L196,118l-13.62,0-13.69.85h-5.38l-10.14.12-13.55-1.36-16.26-7.2-3.8-2.27-.46.13-18.5-6.63-11.2,2.07h-3.9l-3.39,5.06-4.55.18L63.72,96.58l-1.53-2.76-4.64-5L45.16,77.22,35.6,71.88l.84-2.15,4.44-8.11-1.8-12.68,0-2.79-.38-.63L32.72,28.74l3.14-3.68,5.27.37L39.67,36.89l.41,11.3ZM27.87,104.06,33,95.46l-.9-2.87-.49-14.38,3.13,1.44L39.7,82l1.49-.56,7.9,7.39,4.75,4,12,14.56,1.73-.21,6.91,5.45L59,114.44l-8.28-3.21L39.2,110.15l-1.35-.61-13.49.86,2-4.85Zm-5.44,16.58L24.7,120,26,115l6.79-1.91.78,2.3,16.59,2.46,2.15-.9,14.37,1.55L81.45,113l.86,2.25,3.38-3.44-.3-1.23,3.3-1.82,2.22-.16L90.58,107l1.4-.6-.17-.09L93,105l0,1.4.38,1.29,17.15,3.93,3.57-.44,2.44,4.28,15.53,4,9,3.63,11.87-1.15,15.66,1.92,8.07.19,11.55.75,11.59-.52,3.08.52,2.28,1.11,11.55-2.54,11.46-1,1-1,11.49-3.49-3.72,4.54L229,129.21l-.92,2.47-12.71,3.44-.81.59-14.07,4.84-12.59,1.88-12.7,1.08-12.7-.79-12.65-1.36-8-.46-19.62.12-15.39.86-15.42.8-15.3-3-5.51,1.68-13.77-.27-13.55-2.63L33.09,135l-7.89-5.94Zm69-99.09.7-3.9,0-.3,6.61,3.19-.46,2.71,7,6.33,7.43,5.75,10.66,8.17,12.29,5.63,11.77,7.29,8.76,2,12.17,4.06,11.1,6.4.35,1.62L191,75.77,193.56,79l3.93,3-.34,3.7-4.2.56-10.54-2.69-5.09-3-2.16-.09,1.22-5.75-3.24-1-.95-2-.4,1.46-6.06.27L151.64,75.1l-7.87-6.66-2.42-1.81-.46-1.37-5.16-6.14-8.44,1L119.6,60l-8.38,1.14L99.93,55.83l2.25-3.47,4.49-2.8.93-2,7.24-1.17.82-.83-.91-1.15v-.39l-.23-.31.88.26,1.21.18.37-.06-.23-.42-1-.3-1-.29,2.49,0-2.44-1.62-9.25-6.82Z" transform="translate(-17.26 -9.97)"/></svg>